<?xml version="1.0"?><svg version="1.2" baseProfile="tiny-ps" viewBox="0 0 300 300" xmlns="http://www.w3.org/2000/svg" xmlns:xlink="http://www.w3.org/1999/xlink"><title>HusseinAlmohmmed</title><g><g fill="#fcfdfd" transform="matrix(.1 0 0 -.1 0 300)"><path d="M0 1500V0h3000v3000H0V1500z"/></g><g fill="#b5cac2" transform="matrix(.1 0 0 -.1 0 300)"><path d="M0 1500V0h3000v3000H0V1500zm610 840v-80h190v160h50v-360h-50v171l-92-3-93-3-3-82-3-83h-39v360h40v-80zm1460 60v-20h-19c-11 0-23 5-26 10-9 15 4 30 26 30h19v-20zm-701-85c26-13 41-33 41-56 0-17-29-9-54 16l-25 25h-41l-20-20-20-20 10-20 10-19 43-12c23-6 54-17 70-25l27-15v-79l-32-20-33-20h-27c-55 0-108 34-108 71v19h14c7 0 21-11 29-24l16-24 25-6 25-6 25 10 26 10v48l-12 10c-7 5-35 16-62 23l-49 14-20 26-19 27 13 28 14 28 25 13c33 17 75 16 109-2zm288-20c13-14 23-30 23-36v-9h-38l-13 20-14 19-26 6-25 6-25-20-24-20 11-18 11-18 53-17c29-10 61-25 71-34l19-17v-57l-19-19-20-20-35-6-35-7-35 12-36 12-15 21c-8 12-15 27-15 34v13h39l6-19 6-19 31-11 31-11 26 13 26 12v50l-65 22-65 22-12 18c-7 9-13 27-13 39v22l32 27 32 27 45-5 45-5 23-27zm264 7 31-28 5-47 6-47h-183v-39l24-27 23-28h72l20 18 19 17 7-11 7-11-17-19-18-20-33-6-33-6-36 12-37 12-19 32-19 31v110l19 29c25 37 57 55 98 56h33l31-28zm392 19 25-10 11-32 11-32v-187h-38l-4 105-3 104-12 12-12 12h-61l-20-18-20-18v-197h-40v260h38l4-12 4-12 24 17c27 19 57 21 93 8zm-1343-97v-95l10-20 11-19h72l19 17 18 16v197h40v-260h-40v21l-30-16c-35-18-60-19-93-4l-25 11-11 25-11 24v199h40v-96zm1100-34v-130h-40v260h40v-130zM420 1790v-190h-50v380h50v-190zm860 120v-70h8c4 0 16 7 26 15l20 15h67l24-25 25-24v-221h-40v210l-24 15-24 16-26-7-26-6-15-21-15-21v-186h-40v380h40v-70zm1640-120v-190h-40v18l-38-15-39-15-36 15-36 15-16 33-17 32 4 65 4 65 32 28 32 29h66l22-16 22-15v141h40v-190zm-2670-2c36-94 67-176 69-181l3-9-23 4-24 3-15 43-14 42H82l-14-42-15-43-23-3-23-4 5 14c3 7 34 88 69 181l63 167h41l65-172zm284 66 6-15 22 15 22 16h64l23-19 23-18 30 18 31 19h66l24-25 25-24v-221h-40v210l-26 16-26 17-26-9-27-9-12-25-13-25v-175h-39l-3 107-3 107-27 16-28 15-27-15-28-16-3-107-3-107h-39v270h14c8 0 17-7 20-16zm594-9c16-13 35-38 42-55l13-30-5-45-6-45-17-26-17-26-34-14-35-15-34 7-33 6-28 29-27 29-5 55-4 55 12 31 13 31 31 19 31 19h73l30-25zm442 9v-15l22 15 22 16h76l20-20 21-21 26 21 26 20h29c31 0 68-16 80-34l8-11v-225h-40v205l-9 15-10 14h-73l-14-19-14-19v-196h-38l-4 105-3 104-12 13-13 12h-68l-16-13-16-13v-208h-40v270h40v-16zm450 1v-16l30 16c16 8 42 15 58 15h30l23-19 24-19 24 19 24 19h33c46 0 63-8 79-41l15-28v-201h-40v200l-20 20-20 20h-19c-10 0-30-9-45-21l-26-20v-199h-40v200l-20 20c-23 23-42 25-73 9-34-18-37-28-37-131v-98h-40v270h40v-15zm579-1 23-17 14-33c8-18 14-45 14-59v-25h-192l6-16c3-9 6-19 6-23s9-17 20-29l21-22h72l19 17 18 17 12-12 11-11-12-15c-7-8-29-20-48-27l-36-11-38 11-38 11-20 26c-11 14-23 41-27 60l-6 34 7 37 7 37 33 33 33 33h78l23-16zM621 1380c23-13 24-33 3-55l-17-16 13-25c15-27 30-32 30-9 0 8 4 15 9 15h8l-1-40-1-39-9 9-8 8-24-10-24-11-25 11-25 12v61l14 5 14 5-12 30-11 31 19 14c24 17 22 17 47 4zm699-80v-90h-20v180h20v-90zm210 70c21-21 26-40 11-40-5 0-13 9-16 20l-6 20h-55l-12-12-12-12v-92l12-12 12-12h55l6 20c3 11 11 20 16 20 15 0 10-19-11-40l-20-20h-41l-24 25-25 24v82l25 24 24 25h41l20-20zm607-117-3-48v190l3-47c2-27 2-69 0-95zm363 127c0-5-4-10-10-10-5 0-10 5-10 10 0 6 5 10 10 10 6 0 10-4 10-10zM60 1305v-75h80v-20H40v170h20v-75zm730 0v-75h80v-20H770v170h20v-75zm1420 50v-15l13-1 12-1-12-5-13-5v-96l13-5 12-4-7-8-8-8-15 13-15 12v98l-12 1-13 1 13 5c6 2 12 11 12 19s5 14 10 14c6 0 10-7 10-15zm228-16 17-1-17-5-18-4v-88l17-10 18-9-7-7-7-7-16 5-15 6v111l-17 1-18 1 18 5 17 4 1 17 1 17 5-17 4-18 17-1zm-2180-64 3-60-33 1c-18 1-39 2-45 2l-13 2v49l19 11c11 5 29 10 40 10 25 0 27 13 5 31l-16 13-19-12c-26-17-34-15-19 4l13 15 31-3 31-3 3-60zm63 20 11-45 8 5c4 3 11 20 14 40 4 19 11 37 16 40l10 6 10-28c6-15 14-37 19-48l9-20 12 48c7 26 16 47 20 47h9l-16-57c-9-32-19-62-23-66l-8-9-18 54-17 53-13-30c-7-16-13-38-14-47 0-9-4-19-10-23l-9-6-17 58c-9 32-18 61-21 66-2 4 1 7 6 7h11l11-45zm663 23c9-12 16-28 16-35v-13h-90v-7c1-27 36-45 63-31l17 9v-10c0-10-24-21-46-21-8 0-23 9-34 20l-20 20v23c0 12 7 33 16 45l15 22h48l15-22zm146-50v-68l-20-20c-24-24-39-25-65-6l-19 14 39-2 39-1 4 18 4 19-21-7-20-6-20 10-19 11-7 30-7 31 16 24 16 25 40-2 40-1v-69zm118 60 12-12v-102l-41 1-40 1-9 14c-13 21-12 26 6 44l15 16h49v31l-15 5-15 6-15-12-15-13-7 7-7 7 14 9c21 13 54 12 68-2zm424-5 18-16v-57l-20-20c-24-24-38-25-68-4l-22 15v68l16 15 15 16h21c12 0 30-7 40-17zm146-51 3-64-10 7-11 6v100l-15 5-15 6-15-12-15-12v-99l-10 6-10 6v116l48-1 47-1 3-63zm122 53 12-15h-9c-5 0-14 5-20 11l-12 12-15-6-16-6v-30l33-9 32-8 3-22 3-22-24-11-24-11-22 11c-11 7-21 17-21 23v10l14-12 15-12 23 4 23 3-1 10c-1 6-18 18-38 28l-36 17v13c0 20 21 37 46 37h22l12-15zm66-73 5-23 27 3 27 3 6 55 6 55 1-65 2-65-32-2-32-2-13 10-13 11 2 57 1 56 4-35c2-19 6-45 9-58zm342 76 12-12v-102l-37 1c-46 1-63 10-63 35v19l19 11c11 5 29 10 40 10h21v31l-16 6-17 6-18-12-19-11v8c0 15 13 22 40 22h26l12-12zm152-53v-65h-20v130h20v-65zm138 33 13-27-7-26-6-26-20-10-20-11-22 6-23 6-12 26-12 26 7 22c4 11 11 27 17 34l10 13 31-3 31-3 13-27zm129 21 13-11v-108h-20v109l-10 6c-6 3-19 3-30 0l-20-6v-109h-20v127l37 1 37 2 13-11zm133-4c15-18 7-19-19-3l-18 11-17-6c-9-4-16-11-16-17v-11l35-15 36-15 6-16 6-16-18-13c-10-8-27-14-36-14-19 0-53 29-44 38 3 3 11 0 17-6 7-7 22-12 35-12h23v30l-35 14-35 15v19c0 25 8 32 40 32h28l12-15zm-1076 963c-20-9-44-47-44-68v-10h140v41l-25 24c-26 27-38 29-71 13zm958-458-22-9-10-26c-6-15-10-46-10-69v-43l21-27 20-26h66l16 18 17 19v64c0 70-4 80-37 98-25 13-30 13-61 1zm-2626 59c-3-8-17-45-31-83-14-37-25-70-25-72s29-4 65-4h65l-30 82c-33 90-37 97-44 77zm868-61c-29-13-44-49-44-102v-43l21-27 20-26h30c17 0 39 5 49 10l19 10 12 39 12 39-7 36-7 35-26 21c-28 22-47 24-79 8zm1471-13-25-24v-42l68 3 67 3-3 25-2 25-21 18c-12 9-30 17-41 17h-19l-24-25zM582 1348l3-23h30l3 23 3 22h-42l3-22zm-17-78c-3-11-3-24 0-30l6-10h30c16 0 29 2 29 5 0 14-34 55-45 55h-14l-6-20zm-375-5-12-14 7-11c9-15 41-12 55 5l12 14-7 11c-9 15-41 12-55-5zm732 53c-7-7-12-16-12-20v-8h70v8c0 12-22 32-35 32-6 0-16-5-23-12zm130 0c-14-14-16-57-3-76l8-14 24 4 24 3 3 39 3 39-13 8c-18 12-32 11-46-3zm139-47-14-9 6-17 7-16 22 3 23 3 3 23 3 22h-18c-10 0-24-4-32-9zm413 34-17-26 12-25 11-25 28 3 27 3 3 33 3 33-12 15c-17 21-36 17-55-11zm689-32-13-5v-39l28 3 27 3 3 23 3 22-18-1c-10 0-24-3-30-6zm267 38c-22-43-5-81 37-81h23l6 26 7 25-12 25-11 24h-39l-11-19z"/></g><g fill="#6b9585" transform="matrix(.1 0 0 -.1 0 300)"><path d="M0 1500V0h3000v3000H0V1500zm2070 914 13-15-16-16-15-16-16 6-16 6v39l13 5c20 9 24 8 37-9zm-1450-74v-80h180v160h50v-370h-50v170H621l-3-82-3-83-22-3-23-3v371h50v-80zm350-102v-93l13-25 12-25 27-3 27-3 20 11 20 10 3 108 3 107 23 3 22 3v-281h-38l-4 11-4 12-21-12c-12-6-38-11-58-11h-36l-24 25-25 24v231h40v-92zm412 72c14-11 28-29 31-40l5-20h-44l-17 20-17 20h-56l-12-12c-7-7-12-20-12-30v-17l57-17 56-16 24-24 23-23v-43l-29-29-29-29h-83l-29 15c-28 15-50 42-50 64v11h50v-29l19-11c11-5 33-10 49-10h30l12 15 12 14-4 18-3 18-64 20-63 20-14 20c-26 35-13 77 31 103l20 11 41 1h41l25-20zm257 5c26-13 41-33 41-56v-9h-45l-13 20-12 20h-69l-10-19-10-18 12-16 12-15 56-16 56-16 13-15 13-16v-60l-21-21-21-21-53-5-54-4-32 27-32 27v38h38l16-26 17-25 41 3 41 3 11 17 10 17-18 20-18 20-39 6-38 7-26 20-25 19v60l25 24 24 25h82l28-15zm286-9 23-23 11-39c6-22 11-45 11-51v-13h-190v-10c0-20 29-68 45-74 28-11 65-7 90 10l24 16 11-7c18-11 11-25-22-46l-33-20-49 4-50 4-27 31-28 31-6 43-7 44 17 42 17 42 26 20 25 20h88l24-24zm145-117v-140l-22 3-23 3-3 124c-1 69 0 131 2 138l5 13h41v-141zm120 125v-15l22 15 22 16h77l24-25 25-24v-232l-22 3-23 3-3 104-3 105-11 13-10 13h-58l-20-20-20-20v-200h-40v280h40v-16zM420 1790v-190h-50v380h50v-190zm870 118v-71l18 16 19 17h37c20 0 46-4 56-10l18-10 11-31 11-32v-187h-50v191l-10 20-11 19h-62l-19-17-18-16v-197h-50v380h50v-72zm1630-118v-190h-40v21l-22-15-22-16h-68l-33 33-32 32-7 42-7 41 11 42 11 42 24 24 24 24h90l6-10c3-5 10-10 16-10h9v130h40v-190zm-2670 3c35-93 65-174 68-180l4-13h-50l-14 43-15 42-80 3-80 3-13-46-13-45H34c-13 0-24 3-24 8 0 4 21 61 46 127s55 144 66 173l19 52h46l63-167zm293 65 5-13 13 13 13 12h82l22-16 22-15 22 15 22 16h39c21 0 47-4 57-10l18-10 11-31 11-32v-187h-50v191l-10 20-11 19h-68l-15-16-16-15v-199h-50v206l-12 12-12 12h-65l-15-16-16-15v-199h-50v270h48l5-12zm589-8c14-10 31-33 38-50l12-30-4-56-5-55-30-30-30-30-40-6-40-5-31 16-32 16-14 28c-7 15-17 41-20 59l-7 31 11 40 10 41 31 25 31 26h95l25-20zm438 4v-15l22 15 22 16h79l18-16 18-16 23 16 22 16h84l23-19 24-19 3-116 4-116h-52v206l-12 12-12 12h-59l-19-17-18-16v-197h-50v206l-12 12-12 12h-59l-19-17-18-16v-197h-50v128c0 71 3 132 7 135 3 4 15 7 25 7h18v-16zm452 5 4-12 21 12c12 6 39 11 61 11h39l17-19 18-20 21 20 21 19h95l20-26 21-27v-217h-50v206l-12 12-12 12h-65l-15-22-16-22v-186h-40v186l-16 22-15 22h-65l-12-12-12-12v-206h-50v270h38l4-11zm587-10c27-25 41-60 41-100v-29h-180v-41l25-24 24-25h57l23 16 23 16 11-11 11-11-22-23-23-22h-109l-31 32-32 32-5 54-4 54 17 37 18 37 26 14 26 14 41 1h40l23-21zm-1289-544v-95h-20v190h20v-95zm825 0v-88l-12-4-13-5v194l13-4 12-5v-88zm-2085 5v-80h80v-20H40v180h20v-80zm568 68c17-17 15-38-5-60l-17-19 22-22 22-21v34h23l-6-29-6-28 10-10 9-9-54-2-54-1-17 19-18 20 13 28 14 27-3 34-3 34 14 8c19 12 42 11 56-3zm162-68v-80h80v-21l-52 3-53 3-3 74c-3 78 1 101 18 101h10v-80zm742 63c18-16 25-43 10-43-4 0-13 9-20 20l-12 20h-19c-11 0-27-7-35-16l-16-15v-35c0-20 5-44 10-55l11-19h49l12 20c7 11 16 20 20 20 14 0 9-23-9-42l-16-18h-57l-20 20-20 20v100l20 20 20 20h53l19-17zm968 7c0-5-4-10-10-10-5 0-10 5-10 10 0 6 5 10 10 10 6 0 10-4 10-10zm-290-25v-15h18l17-1-17-10-18-10v-89h15c8 0 15-5 15-11v-10l-22 3-23 3-3 50-3 50-16 13-17 12h34v15c0 8 5 15 10 15 6 0 10-7 10-15zm220 0v-15l13-1 12-1-12-5-13-5v-96l13-5 12-4-8-9-8-8-17 10-17 11-3 49-3 49-12 7-12 8h25v30h30v-15zm-2176-27c3-7 7-36 9-63l6-51-42-1-41-2-13 11c-17 14-16 33 3 52l15 16h49v31l-15 5-15 6-15-12c-17-14-31-8-20 9l6 11h70l3-12zm71-34 11-39 6 10c3 6 9 25 13 43l7 32h25l14-47 13-48 14 48 13 47h10c12 0 12 0-8-70-18-66-28-74-43-32-6 15-14 36-19 47l-9 20-12-48-13-48-10 4c-10 3-27 45-41 100l-7 29 12-4 13-4 11-40zm665 27c5-11 10-27 10-35v-16h-90v-9c0-5 7-14 15-21l14-12 33 7 33 8-14-17-13-16h-51l-19 17-18 16v29c0 16 5 38 10 49l11 19h68l11-19zm140-57v-73l-16-15c-22-23-84-19-84 5v9l25-6 25-6 15 12c8 7 15 16 15 20v7l-25-5-26-4-19 17-20 18v29c0 16 5 38 10 49l11 19 44-2 45-1v-73zm125 64c2-7 5-36 8-65l4-52-45 2-45 2-11 18-11 17 11 18 11 17 32 3 31 3v14c0 7-8 16-17 19l-16 7-11-11c-5-5-16-10-24-10h-14l12 15 12 15h69l4-12zm425-7c5-11 10-32 10-47v-27l-17-19-16-18h-21c-27 0-40 9-55 38l-12 23 7 22c3 12 11 28 16 35l10 12h67l11-19zm138-48 3-63h-21v108l-12 5c-7 2-21 0-30-5l-18-9v-99h-20v128l48-2 47-1 3-62zm129 52c8-24-4-30-23-11-18 18-39 17-39-2v-12l34-18c41-20 48-34 26-56l-16-16h-48l-17 17-17 17 14 5 13 4 4-11 4-12h49l-3 17-3 17-24 6c-13 3-29 13-34 21l-10 16 6 17 6 16h72l6-15zm63-41v-55l23 3 22 3 3 53 3 52h29v-126l-45-2-45-2-10 20c-5 10-10 39-10 64v46h30v-56zm348-10 3-62-42 2-42 1-11 18-11 17 11 18 11 17 32 3c34 4 39 13 16 32l-16 13-11-11c-7-7-18-12-26-12h-14l12 16 13 15 36-3 36-3 3-61zm142 1v-65h-20v130h20v-65zm132 48 18-16v-53l-16-22-15-22h-58l-15 22c-9 12-16 33-16 47v24l17 19 16 18h50l19-17zm140 5c4-7 8-37 8-65v-53h-20v98l-15 12-15 12-15-12-15-12v-98h-20v127l42 1 42 2 8-12zm128-3 13-15-7-7-6-6-19 17-20 18-10-7c-6-3-11-12-11-19v-12l32-9 33-10 3-18 4-18-12-14-12-15h-56l-12 15c-17 21-7 29 18 14l19-12 17 6c26 10 19 25-20 37l-35 12-6 14-5 14 12 15 12 15h56l12-15zm-1092 948c-8-10-18-26-21-35l-6-18h140l-7 23c-3 12-11 28-16 35l-10 12h-65l-15-17zm956-464-19-21v-120l24-19 23-19h48l20 20 20 20v127l-18 16-19 17h-60l-19-21zm-2627 20c-15-41-27-80-27-86v-13h110l-1 13c0 6-13 45-28 86l-27 73-27-73zm892-3c-30-14-49-51-49-94v-33l15-29 15-30 24-6c37-9 57-2 79 28l20 27v44c-1 25-6 54-12 65l-11 20-29 10-29 10-23-12zm1484 3c-21-8-43-37-43-58v-11h130v18c0 25-12 39-40 50l-25 9-22-8zM584 1355c-3-8-3-19 1-25l7-11 14 12c8 6 14 18 14 25v14h-31l-5-15zm-13-83-10-19 11-11c14-14 45-16 52-3l5 8-23 22-24 23-11-20zm-381-23v-20l22 3 23 3 3 18 3 17h-51v-21zm736 65c-22-22-21-24 19-24h36l-11 20c-13 24-23 25-44 4zm130 0c-19-19-20-44-3-68l13-18 20 3 19 4 3 37 3 37-20 10-20 11-15-16zm128-55-6-11 10-10 10-10 18 4 19 3 3 18 3 17h-50l-7-11zm428 59-12-12v-67l16-6 17-6 16 10 16 10 3 25 3 25-16 17c-20 19-27 20-43 4zm672-59-6-11 10-10 10-10 21 7 21 6v29h-49l-7-11zm280 46-17-26 12-25 11-25 22 3 23 3 9 27 10 27-19 21c-24 26-31 25-51-5z"/></g><g fill="#1f5e46" transform="matrix(.1 0 0 -.1 0 300)"><path d="M1 2303v-698l35 90c19 50 51 132 70 183l36 92h18c26 0 31-9 99-190 35-91 66-171 68-177l5-13h-58l-18 50-18 51-75-3-75-3-17-45-16-45-28-3-27-3V0h3000v3000H0l1-697zm2074 107c8-26-1-40-26-40h-20l-5 15c-4 8-4 22 0 30l5 15h40l6-20zm-1455-65v-75h180v150h50v-370h-50v170H620v-170h-60v370h60v-75zm773-46c15-16 27-36 27-44v-15h-48l-16 25-16 25h-58l-12-15-12-15 6-15c6-17 10-19 74-35l43-11 20-20 19-19v-61l-25-24-24-25h-109l-31 26-31 26v38h39l25-25 25-25h24c13 0 32 6 43 14l19 15-11 18-11 18-53 17c-29 10-61 25-71 34l-19 17v53l15 22 16 22 32 9 32 8 30-4 30-5 28-29zm255 14c23-14 43-52 35-65-2-5-15-8-27-8h-24l-5 20-5 19-27 7-28 7-16-10c-9-6-17-19-19-31l-3-21 61-17 61-17 19-25c23-28 24-41 9-75l-11-25-25-11c-13-6-44-11-69-11h-45l-24 16-24 15-10 30-10 29h57l5-20 5-19 26-7 26-6 25 6 25 6v49l-17 9c-10 5-34 12-53 16-19 3-46 15-59 25l-24 19v62l18 20c10 11 32 24 49 29l31 9 25-5c14-3 35-12 48-20zm270 1 24-16 14-33c8-19 14-48 14-65v-30h-180v-17c0-9 10-27 22-40l21-23h54l26 20 25 20 13-16 13-16-27-24-28-24h-90l-28 15-28 14-18 37-17 37 4 49 5 49 20 27c11 15 35 35 54 45l34 17 25-5c14-4 36-13 48-21zm387 16c8 0 23-10 35-22l20-22v-236h-50v209l-16 15c-20 21-47 20-73-1l-21-18-2-100-3-100-27-3-28-3v281h50v-28l37 19 38 19 13-5c8-3 20-5 27-5zM980 2220v-110l26-12 26-12 26 15 27 15 3 107 3 108 27-3 27-3v-270l-27-3-28-3v25l-12-12-12-12h-93l-24 26-24 26-4 114-3 114h62v-110zm1090-30v-140h-50v280h50v-140zM420 1790v-200h-50v400h50v-200zm870 131v-69l43 16 43 15 29-14 29-14 13-25 13-25v-215h-50v185l-13 25-13 25-22 3-23 4-25-16-24-16v-210h-50v400h50v-69zm1638-133 2-198h-48l-4 11-4 12-21-12c-12-6-37-11-55-11h-34l-20 15c-12 8-29 30-38 49l-16 34v83l14 32c7 18 23 41 35 51l21 20h33c17 0 42-3 55-7l22-8v59c0 65 5 74 35 70l20-3 3-197zm-2246 65 18-16 21 19 21 19h87l23-23 23-23 3-119 4-120h-52v196l-16 22-15 22h-58l-15-22-16-22v-196h-50v209l-16 15-15 16h-52l-19-17-18-16v-207h-50v280h50v-19l33 14 32 15 29-5c16-3 38-13 48-22zm444 2c13-8 31-27 41-42l17-26v-102l-17-32-17-33-30-15-29-15h-78l-28 22-27 21-14 33c-8 19-14 50-14 71v38l18 34 19 34 34 19 34 19 34-5c18-3 44-12 57-21zm561 14c15-5 31-15 35-22l7-11 21 19 22 20h90l24-28 24-28v-229h-50v209l-16 15-15 16h-49l-20-20-20-20v-200h-50v209l-16 15-15 16h-57l-10-13-11-13-3-105-3-104-27-3-28-3v281h50v-19l33 14c39 17 48 18 84 4zm467-7 30-18 38 20 39 19 40-12 39-12 10-19 10-19v-231h-50v216l-12 12c-14 14-57 16-78 2l-15-9-5-108-5-108-27-3-28-3v217l-12 12c-15 15-53 16-79 2l-19-11v-220l-27 3-28 3-3 138-3 137h61v-19l28 15c36 19 61 18 96-4zm431 4 34-14 15-31 16-30v-71h-180v-10c0-6 7-24 15-40l15-28 29-7 30-6 23 12c13 7 26 17 30 22l6 11 16-13c23-19 20-29-16-51l-33-20h-76l-29 15-30 15-15 30-15 29v106l20 33 20 33 33 14c41 18 50 18 92 1zm-1255-561v-95h-30v190h30v-95zm820 0v-95h-30v190h30v-95zm-2090 5v-80h90v-20H30v180h30v-80zm579 61 11-19-19-24-19-24 13-17c15-21 25-22 25-2 0 8 4 15 8 15 17 0 21-12 12-36l-9-23 9-6c6-4 10-10 10-14v-7l-57-2-57-1-13 10c-18 15-16 49 3 71l17 18-13 15-13 16 11 24 12 25h59l10-19zm151-61v-80h80v-20H760v180h30v-80zm744 64c9-8 16-22 16-30v-14h-30v29l-21 6-21 7-14-14c-8-8-17-30-20-49l-6-34 19-24 19-24 22 7 22 7v29h30v-14c0-8-7-22-16-30l-15-16h-66l-19 21-19 21v96l19 21 19 21h66l15-16zm971 7 5-10-10-6-10-6-10 6-10 6 5 10c4 5 10 9 15 9s11-4 15-9zm-295-15c0-8 7-16 15-20 8-3 15-10 15-16 0-5-7-10-15-10h-15v-81l15-5c22-9 18-24-5-24h-19l-11 19c-5 11-10 35-10 55v34l-12 4-11 4 18 27c19 29 35 35 35 13zm220-1c0-8 5-15 10-15 6 0 10-7 10-15s-4-15-10-15h-10v-90h10c6 0 10-5 10-11v-10l-22 3-23 3-3 53-3 52h-10c-5 0-9 7-9 15s5 15 10 15c6 0 10 7 10 15v15h30v-15zm-2178-32 18-16v-108l-46 3-47 3-11 18-11 17 11 18 11 17 32 3 31 3v29h-50v-10c0-5-7-10-15-10-22 0-18 17 7 34 29 20 47 20 70-1zm73-34 11-44 15 43c8 24 18 45 24 45l9 2 17-44 16-44 12 47 11 46h10c14 0 12-24-6-86l-15-54h-26l-14 48-13 47-14-47-13-48h-26l-17 58c-9 32-16 64-16 71v13l12-4 12-4 11-45zm657 34 18-16v-47h-80v-31l16-6 17-6 17 11c22 13 34 4 19-15l-11-13h-57l-15 16-16 15v78l22 15c29 20 47 20 70-1zm148-68v-81l-12-12-12-12h-64l-11 13c-15 19-2 28 21 16l20-11 14 6c8 3 14 10 14 16v10h-59l-11 19c-5 11-10 34-10 52v32l16 18 16 18 39-2 39-1v-81zm122 68 18-16v-105l-52 1-53 2-3 23-4 23 12 15 12 14h60l-4 13c-3 6-14 13-26 15l-22 3v-10c0-6-7-11-15-11-19 0-19 14 1 34l15 16h21c12 0 30-7 40-17zm425-9 25-25-6-31c-3-17-11-37-17-45l-11-13h-67l-15 22c-9 12-16 34-16 47v25l22 23 21 23h38l26-26zm143 6 10-15v-105h-29l-3 53-3 52h-40l-3-52-3-53h-29v138l45-2 46-1 9-15zm125 0 18-20-7-7-7-7-19 12c-11 7-27 12-36 12h-16l4-12c3-7 18-16 36-20l31-8 6-21 7-20-13-15-12-15-35 3-35 3-11 17-10 17 7 7 7 7 20-18 19-17 16 5c8 4 15 11 15 16v10l-32 9-31 8-11 16-10 17 18 20 19 21h44l18-20zm67-45 3-50h40l5 55 5 55h20l3-67 3-68h-87l-12 12-12 12v51c0 29 3 55 7 59l7 6 7-7c4-5 9-30 11-58zm330 53 16-13 4-56 4-56-48-2-47-1-11 20c-13 24-13 26 6 44l15 16h49v30h-19c-11 0-23-4-26-10-9-15-25-12-25 5 0 30 54 45 82 23zm158-58v-70h-30v63c0 62 4 77 22 77h8v-70zm130 50 20-20v-63l-17-19-16-18h-50l-19 17-18 16v67l20 20 20 20h40l20-20zm138 8 12-10v-118h-30v111l-22-3-23-3-3-52-3-53h-29v63c0 35 2 66 5 68 2 3 21 6 42 6l38 1 13-10zm123 2 19-11v-14c0-17-16-20-25-5-3 6-15 10-26 10h-19v-11c0-5 14-15 30-21l30-10 10-18 9-17-12-17-13-18-33 4-34 3-11 17-10 17 8 8 8 8 12-18c14-19 41-23 51-7l6 9-38 18-38 18-3 19-4 20 18 13c22 16 39 16 65 3zm-1081 930c-11-11-20-27-20-35v-15h120v37l-18 16-19 17h-43l-20-20zm956-462c-8-13-17-39-20-58l-6-35 13-34 12-34 28-10 28-9 24 16 25 16v149l-19 11c-11 5-31 10-45 10h-26l-14-22zm-1748 11-17-10-11-38-10-38 6-32 7-32 25-19c31-25 53-25 82-2l23 19 5 54 4 54-22 28-21 27h-27c-15 0-35-5-44-11zm1473-15c-12-15-21-31-21-35v-9h130v13c0 7-7 23-16 35l-15 22h-58l-20-26zM584 1359l-6-11 11-11 11-11 11 11 11 11-6 11c-4 6-11 11-16 11s-12-5-16-11zm-10-83c-3-9-4-23 0-31l5-15h41v13c0 8-9 22-20 32l-20 18-6-17zm-384-20c0-8 4-17 9-20 14-9 41 4 41 20v14h-50v-14zm737 57c-14-13-6-23 18-23h25v30h-18c-10 0-22-3-25-7zm127-7c-3-8-4-27-2-43l3-28h40l3 43 3 42h-42l-5-14zm136-50c0-8 5-18 10-21l11-7 14 12c8 7 15 16 15 21v9h-50v-14zm414 37-7-26 10-16 10-16h38l9 27 9 27-13 15c-7 9-21 16-31 16h-19l-6-27zm680-34-6-11 10-10 11-11 15 6 16 6v31h-19c-11 0-23-5-27-11zm283 55c-4-4-7-22-7-40v-33l21-6 21-7 10 10 9 9-3 34-3 34-20 3c-12 2-24 0-28-4zM140 1828c-12-35-25-69-27-75l-5-13h112l-26 73c-15 39-27 73-29 75-1 1-12-26-25-60z"/></g><g fill="#1a5842" transform="matrix(.1 0 0 -.1 0 300)"><path d="M1 2308c0-381 3-688 5-683 2 6 33 84 67 175l63 165h57l15-42 16-42 117 352 118 352 1 50v51l53 52 53 52h93l313 105 313 104-642 1H0l1-692zm2187 572 242-121 150-299 150-300v-297l40 11 40 10 30-11 30-11v128h60v-400h-50v21l-19-11c-11-5-39-10-64-10h-44l-20 23c-11 12-25 31-30 41l-10 19-53-157c-29-87-50-158-49-159 35-19 46-28 57-50l13-26-7-26-6-26-25-16-25-17-29 11-28 11-36-107-35-106V894l-58-57-58-57h-107l-391-130-391-130-190 1h-190L790 669 495 816l-113 224-114 225 4-26 5-27-41-5-40-6-19 10-18 10 3 31 3 31 40 11 40 12-13 8-14 8-24-13-24-12-6 6c-4 3-4 13 0 22l6 15 30 6 30 7-20 32-20 32v273H92l-17-50-17-50H0V0h3000v3000H1945l243-120zM70 1315v-75h80v-30H30v180h40v-75zm2710 9c6-14 10-45 10-70v-44h-40v110h-13c-7 0-18-5-25-12l-12-12v-86h-30v137l50 2 51 1 9-26zm122 9c24-21 23-33-2-33h-20v20h-40v-9c0-5 16-15 35-21l34-11 7-21 7-22-24-18-23-19-25 6c-25 6-51 30-51 47 0 14 33 8 45-9l12-16 11 7c20 12 13 23-20 32l-33 10-3 22-4 23 12 15 12 14h51l19-17zM160 1878c0-4-11-37-25-73l-24-65h79v78l-15 33c-8 19-14 31-15 27zm2615-73-25-24v-97l16-22 15-22h65l12 12 12 12v135l-22 15c-31 22-45 20-73-9zm-205-504c-14-27-13-46 5-61l15-12 15 12 15 12v22c0 22-17 46-32 46-4 0-12-9-18-19zm-2373-38c-4-3-7-10-7-15v-9l22 3c12 2 23 9 26 16l4 12h-19c-11 0-23-3-26-7z"/></g></g></svg>